<?xml version="1.0" standalone="no"?><!DOCTYPE svg PUBLIC "-//W3C//DTD SVG 1.1//EN" "http://www.w3.org/Graphics/SVG/1.1/DTD/svg11.dtd"><svg t="1551074467110" class="icon" style="" viewBox="0 0 1024 1024" version="1.1" xmlns="http://www.w3.org/2000/svg" p-id="2960" xmlns:xlink="http://www.w3.org/1999/xlink" width="28" height="28"><defs><style type="text/css"></style></defs><path d="M880 704a16 16 0 0 0-16 16v48a16 16 0 0 0 32 0v-48a16 16 0 0 0-16-16z" fill="#dbdbdb" p-id="2961"></path><path d="M798.4 336H592v-105.6A102.4 102.4 0 0 0 489.6 128H230.4A102.4 102.4 0 0 0 128 230.4v608a59.2 59.2 0 0 0 59.2 57.6h652.8a57.6 57.6 0 0 0 56-59.2V816a16 16 0 0 0-32 0v20.8a25.6 25.6 0 0 1-24 27.2H592V368h206.4a67.2 67.2 0 0 1 65.6 68.8V672a16 16 0 0 0 32 0V436.8a99.2 99.2 0 0 0-97.6-100.8zM160 836.8v-608a70.4 70.4 0 0 1 70.4-68.8h259.2a70.4 70.4 0 0 1 70.4 70.4V864h-112V697.6a60.8 60.8 0 0 0-64-57.6h-48a60.8 60.8 0 0 0-64 57.6V864h-84.8a27.2 27.2 0 0 1-27.2-27.2z m144 27.2V697.6a28.8 28.8 0 0 1 32-25.6h48a28.8 28.8 0 0 1 32 25.6V864z" fill="#dbdbdb" p-id="2962"></path><path d="M448 528a16 16 0 0 0 0-32H256a16 16 0 0 0 0 32zM256 368h192a16 16 0 0 0 0-32H256a16 16 0 0 0 0 32zM784 592h-112a16 16 0 0 0 0 32h112a16 16 0 0 0 0-32zM784 752h-112a16 16 0 0 0 0 32h112a16 16 0 0 0 0-32zM784 432h-112a16 16 0 0 0 0 32h112a16 16 0 0 0 0-32z" fill="#dbdbdb" p-id="2963"></path></svg>