<?xml version="1.0" standalone="no"?><!DOCTYPE svg PUBLIC "-//W3C//DTD SVG 1.1//EN" "http://www.w3.org/Graphics/SVG/1.1/DTD/svg11.dtd"><svg t="1551420003354" class="icon" style="" viewBox="0 0 1024 1024" version="1.1" xmlns="http://www.w3.org/2000/svg" p-id="2429" xmlns:xlink="http://www.w3.org/1999/xlink" width="32" height="32"><defs><style type="text/css"></style></defs><path d="M977.8 462.4c-8.8-82.7-39.5-161.5-89.3-228.9C829.4 153.6 748.3 95.4 654 65.3c-5.1-1.6-10.4-2.5-15.8-2.5-25.5 0-47.6 19-51.4 44.3-3.8 25.4 11.2 49.4 35.7 57.3 26 8.3 51.2 19.6 74.9 33.6 42 24.9 78.2 57.7 107.5 97.4 29.3 39.7 50 83.9 61.5 131.3 2.7 11.2 4.9 22.5 6.5 34h-16.5c-4.8-33.7-14.6-66.3-29-97-17.1-36.4-40.3-69.4-69.1-98.2-28.6-28.6-61.5-51.8-97.7-68.8-30.6-14.4-63-24.1-96.5-29.1v-108c0-28.7-23.3-52-52-52-23.8 0-43.9 16-50 37.9-82.7 8.6-161.4 39.2-228.7 88.9C127.2 212.7 59.6 331.6 46 462.5c-22.1 6-38.4 26.2-38.4 50.2 0 24.1 16.5 44.4 38.8 50.3 9.1 81.9 39.8 160.1 89.1 226.9 78.1 105.7 196.2 173.5 326.2 187.8 5.9 22.3 26.2 38.7 50.3 38.7 24 0 44.2-16.3 50.2-38.4 82.6-8.7 161.3-39.2 228.6-88.9 105.5-77.9 173-196 187-326.1 22.2-5.9 38.6-26.2 38.6-50.3 0-24.1-16.4-44.3-38.6-50.3zM514.5 512l-0.6 0.9h-1.1c-0.6 0-1-0.2-1.4-0.6-0.4-0.4-0.6-0.9-0.5-1.4 0-1.1 0.9-1.9 2.1-1.9 0.5 0 1 0.2 1.4 0.6 0.4 0.4 0.6 0.9 0.6 1.4-0.1 0.3-0.2 0.7-0.5 1z m7.5 59.1c6.1-2.1 11.3-6.1 14.8-11.4 0.6 0 1.2 0.1 1.8 0.1 9.5 0 18.5-4.6 24.1-12.2 7.5-10.2 11.7-22.3 12.1-35 0.5-16.5-5.5-32.3-16.9-44.3-11.4-12-26.8-18.9-43.3-19.4h-1.8c-16.2 0-31.5 6.2-43.2 17.5-11.7 11.3-18.4 26.5-18.8 42.7-0.5 16.6 5.5 32.3 16.9 44.3 9.3 9.8 21.2 16.2 34.2 18.5v49.2c-23.9 4.7-42 25.8-42 51v120.8c-115.1-21.6-207-113.2-229-228.2H352c28.7 0 52-23.3 52-52s-23.3-52-52-52H230.3c20.7-117 113-210.1 229.7-232v122.8c0 28.7 23.3 52 52 52s52-23.3 52-52V228.4c117.7 21.2 210.7 114.5 231.5 232.3H672.1c-28.7 0-52 23.3-52 52s23.3 52 52 52h122.7C772.7 680.5 680.1 772.2 564 793.3V672.1c0-25.3-18.1-46.3-42-51v-50z m-96-414.2c11.2-2.7 22.6-4.8 34-6.5v17.4c-33.2 5-65.3 14.8-95.6 29.2-35.9 17-68.5 40-96.9 68.4-28.8 28.8-52 61.8-69.1 98.2-14.4 30.8-24.1 63.3-29 97H151c0.2-1.3 0.4-2.5 0.5-3.8 7-46.9 22.7-91.2 46.6-131.7 24.8-41.9 57.4-78 96.9-107.2 39.6-29.1 83.6-49.7 131-61zM170 564.7c5.1 33 14.9 65 29.3 95.1 17 35.7 39.9 68.1 68.2 96.4 28.4 28.4 61 51.5 96.9 68.4 30.3 14.4 62.4 24.2 95.6 29.2v18.8c-0.5-0.1-1-0.2-1.5-0.2-46.9-7.1-91.2-22.9-131.8-47-42-24.9-78.2-57.7-107.5-97.4-29.3-39.7-50-83.9-61.5-131.3-2.5-10.5-4.6-21.3-6.2-32H170z m428 301.8c-11.2 2.7-22.6 4.8-34 6.5v-18.9c33.5-4.9 65.9-14.7 96.5-29.1 36.2-17 69.1-40.2 97.7-68.8 28.3-28.3 51.3-60.7 68.2-96.4 14.3-30.1 24.2-62.1 29.3-95.1h17l-0.3 1.8c-7 46.9-22.7 91.2-46.6 131.7-24.8 41.9-57.4 78-96.9 107.2-39.5 29.2-83.5 49.8-130.9 61.1z" fill="#839BFF" p-id="2430"></path><path d="M964.4 480.7h-5c-5.8-82.3-34.3-163.9-87-235.2-58.4-79-137.7-133.4-224.5-161.1-18.7-6-38.4 6.3-41.3 25.8-2.3 15.6 7 30.5 22 35.2 27.5 8.8 53.9 20.6 79 35.5 44.3 26.3 82.4 60.8 113.4 102.7s52.7 88.5 64.8 138.5c4.7 19.4 7.8 39 9.4 58.7h-56.7c-6.9-76-39.8-146.5-94.4-201.1-54.4-54.4-124.5-87.2-200.1-94.3V59.6c0-17.7-14.3-32-32-32s-32 14.3-32 32V64c-82.2 5.6-163.8 33.9-234.9 86.5-110 81.3-172 203.5-180.6 330.2h-4.9c-17.7 0-32 14.3-32 32s14.3 32 32 32h5.2c6.1 81.6 34.6 162.6 86.8 233.3C232.6 887.7 354 949.9 480 959.3v5.1c0 17.7 14.3 32 32 32s32-14.3 32-32v-4.9c82.2-5.6 163.8-34 234.9-86.5 109.5-80.9 171.4-202.2 180.4-328.3h5.1c17.7 0 32-14.3 32-32s-14.3-32-32-32z m-146 0H672.1c-17.7 0-32 14.3-32 32s14.3 32 32 32H818c-15.8 143.2-130.4 257.1-274 271.6V672.1c0-17.7-14.3-32-32-32s-32 14.3-32 32V816c-142.7-15.3-256.5-128.8-272.2-271.4h144.3c17.7 0 32-14.3 32-32s-14.3-32-32-32H207.4C221.5 336.3 336 221 480 205.6v145.9c0 17.7 14.3 32 32 32s32-14.3 32-32V205.4C688.8 220 804.2 335.7 818.4 480.7zM131.7 454c7.4-49.4 23.9-96.2 49.2-138.9 26.1-44.2 60.5-82.3 102.2-113.1s88.2-52.5 138.1-64.5c19.4-4.6 39-7.8 58.7-9.3v57.3c-74.9 7.4-144.4 40.2-198.3 94.2-54.6 54.6-87.5 125.1-94.4 201.1h-58.6c0.8-9 1.8-17.9 3.1-26.8z m323.8 438.1c-49.4-7.5-96.2-24.2-139-49.5-44.3-26.3-82.4-60.8-113.4-102.7s-52.7-88.5-64.8-138.5c-4.5-18.8-7.6-37.7-9.3-56.7h58.7c7.6 74.6 40.3 143.7 94 197.4 53.9 53.9 123.4 86.7 198.3 94.2V895c-8.2-0.7-16.4-1.6-24.5-2.9z m436.8-322.7c-7.4 49.4-23.9 96.2-49.2 138.9-26.1 44.2-60.5 82.3-102.2 113.1S652.7 874 602.7 886c-19.4 4.6-39 7.7-58.7 9.3v-58.9c75.6-7.1 145.8-39.9 200.1-94.3 53.7-53.7 86.4-122.8 94-197.4h57c-0.7 8.2-1.6 16.5-2.8 24.7z" fill="#839BFF" p-id="2431"></path><path d="M514.1 468.8h-1.2c-22.6 0-41.3 18.1-42 40.8-0.3 11.2 3.8 21.9 11.5 30 7.7 8.2 18.1 12.8 29.3 13.1h0.3c5.4 0 9.8-4.3 10-9.7 0.2-5.5-4.2-10.1-9.7-10.3-5.9-0.2-11.3-2.6-15.4-6.9-4-4.3-6.2-9.9-6-15.7 0.3-12.1 10.5-21.7 22.6-21.4 12.1 0.3 21.7 10.5 21.4 22.6-0.1 4.5-1.6 8.8-4.3 12.4-3.3 4.4-2.3 10.7 2.1 14 4.4 3.3 10.7 2.3 14-2.1 5.1-6.9 7.9-15.1 8.2-23.7 0.6-23-17.7-42.4-40.8-43.1z" fill="#839BFF" p-id="2432"></path></svg>