<?xml version="1.0" standalone="no"?><!DOCTYPE svg PUBLIC "-//W3C//DTD SVG 1.1//EN" "http://www.w3.org/Graphics/SVG/1.1/DTD/svg11.dtd"><svg t="1551075225396" class="icon" style="" viewBox="0 0 1024 1024" version="1.1" xmlns="http://www.w3.org/2000/svg" p-id="3138" xmlns:xlink="http://www.w3.org/1999/xlink" width="28" height="28"><defs><style type="text/css"></style></defs><path d="M901.12 457.216l-332.8-335.872a70.656 70.656 0 0 0-51.2-20.992 70.656 70.656 0 0 0-51.2 20.992L134.144 457.216a25.6 25.6 0 0 0 0 36.352 25.088 25.088 0 0 0 24.576 6.144v350.208A97.28 97.28 0 0 0 256 947.2h522.24a97.28 97.28 0 0 0 97.28-97.28V499.2h6.656a25.6 25.6 0 0 0 17.92-43.52z m-292.864 409.6a27.648 27.648 0 0 1-27.648 27.648H454.656a27.648 27.648 0 0 1-27.648-24.064v-112.128a90.624 90.624 0 1 1 181.76 0z m216.576-18.432a46.08 46.08 0 0 1-46.08 46.08h-124.416a77.824 77.824 0 0 0 5.12-27.648v-108.544a141.824 141.824 0 1 0-284.16 0V870.4a77.824 77.824 0 0 0 5.12 27.648H256a46.08 46.08 0 0 1-46.08-46.08V453.12l293.888-295.936a19.968 19.968 0 0 1 28.16 0l293.376 295.936z" fill="#5184F0" p-id="3139"></path><path d="M435.712 480.256H307.2a25.6 25.6 0 1 0 0 51.2h128.512a25.6 25.6 0 1 0 0-51.2z" fill="#5184F0" p-id="3140"></path></svg>