<?xml version="1.0" standalone="no"?><!DOCTYPE svg PUBLIC "-//W3C//DTD SVG 1.1//EN" "http://www.w3.org/Graphics/SVG/1.1/DTD/svg11.dtd"><svg t="1554962064363" class="icon" style="" viewBox="0 0 1024 1024" version="1.1" xmlns="http://www.w3.org/2000/svg" p-id="1104" xmlns:xlink="http://www.w3.org/1999/xlink" width="32" height="32"><defs><style type="text/css"></style></defs><path d="M898.133333 597.333333c72.533333-128 42.666667-256-44.8-320-42.666667-32-85.333333-42.666667-151.466666-42.666666h-185.6c-29.866667 0-34.133333 12.8-34.133334 44.8l-2.133333-17.066667c0 32 4.266667 36.266667 34.133333 36.266667h183.466667c36.266667 0 104.533333 14.933333 128 42.666666 44.8 49.066667 51.2 194.133333 10.666667 245.333334-29.866667 38.4-93.866667 46.933333-119.466667 46.933333l-253.866667-2.133333v70.4h264.533334c66.133333-2.133333 134.4-40.533333 170.666666-104.533334zM198.4 680.533333l187.733333-108.8c29.866667-17.066667 66.133333 4.266667 57.6 38.4v217.6c6.4 34.133333-29.866667 55.466667-57.6 38.4l-187.733333-108.8c-29.866667-17.066667-29.866667-59.733333 0-76.8z" fill="#71E2BD" p-id="1105"></path><path d="M405.333333 893.866667c-14.933333 0-29.866667-4.266667-42.666666-12.8L76.8 718.933333c-27.733333-14.933333-44.8-44.8-44.8-76.8s17.066667-59.733333 44.8-76.8L362.666667 401.066667c29.866667-17.066667 66.133333-14.933333 91.733333 4.266666 23.466667 17.066667 34.133333 44.8 27.733333 74.666667v324.266667c6.4 29.866667-4.266667 57.6-27.733333 74.666666-17.066667 10.666667-32 14.933333-49.066667 14.933334zM98.133333 603.733333c-14.933333 8.533333-23.466667 23.466667-23.466666 38.4s8.533333 29.866667 23.466666 38.4L384 844.8c14.933333 8.533333 32 8.533333 44.8-2.133333 6.4-4.266667 14.933333-14.933333 10.666667-34.133334V471.466667c4.266667-19.2-6.4-29.866667-10.666667-34.133334-12.8-8.533333-29.866667-10.666667-44.8-2.133333L98.133333 603.733333z" fill="#1E1E1E" p-id="1106"></path><path d="M738.133333 716.8H437.333333v-155.733333h292.266667c21.333333 0 51.2-12.8 64-27.733334 55.466667-68.266667 38.4-138.666667 0-177.066666-23.466667-23.466667-53.333333-36.266667-85.333333-36.266667h-194.133334c-42.666667 0-76.8-34.133333-76.8-76.8s36.266667-78.933333 78.933334-78.933333h198.4c74.666667 0 142.933333 27.733333 196.266666 81.066666 96 96 108.8 236.8 32 362.666667-42.666667 66.133333-119.466667 108.8-204.8 108.8z m-258.133333-42.666667h258.133333c68.266667 0 132.266667-34.133333 166.4-89.6 66.133333-106.666667 55.466667-228.266667-25.6-309.333333-44.8-44.8-102.4-68.266667-166.4-68.266667h-198.4c-19.2 0-36.266667 17.066667-36.266666 36.266667 0 19.2 14.933333 34.133333 34.133333 34.133333h194.133333c42.666667 0 85.333333 17.066667 115.2 49.066667 51.2 51.2 74.666667 147.2 2.133334 234.666667-19.2 25.6-61.866667 44.8-96 44.8H480v68.266666z" fill="#1E1E1E" p-id="1107"></path></svg>