<?xml version="1.0" standalone="no"?><!DOCTYPE svg PUBLIC "-//W3C//DTD SVG 1.1//EN" "http://www.w3.org/Graphics/SVG/1.1/DTD/svg11.dtd"><svg t="1555072482197" class="icon" style="" viewBox="0 0 1024 1024" version="1.1" xmlns="http://www.w3.org/2000/svg" p-id="9356" xmlns:xlink="http://www.w3.org/1999/xlink" width="24" height="24"><defs><style type="text/css"></style></defs><path d="M459.3664 526.7456c24.9856-25.8048 40.3456-60.928 40.3456-99.5328 0-79.0528-64.3072-143.36-143.36-143.36s-143.36 64.3072-143.36 143.36c0 38.6048 15.36 73.728 40.3456 99.5328-61.2352 35.6352-102.4 101.888-102.4 177.664 0 19.7632 16.0768 35.84 35.84 35.84s35.84-16.0768 35.84-35.84c0-73.728 60.0064-133.7344 133.7344-133.7344s133.7344 60.0064 133.7344 133.7344c0 19.7632 16.0768 35.84 35.84 35.84s35.84-16.0768 35.84-35.84c0.1024-75.776-41.1648-142.1312-102.4-177.664zM356.352 355.4304c39.5264 0 71.68 32.1536 71.68 71.68s-32.1536 71.68-71.68 71.68-71.68-32.1536-71.68-71.68 32.1536-71.68 71.68-71.68zM837.2224 740.2496H618.1888c-19.7632 0-35.84-16.0768-35.84-35.84s16.0768-35.84 35.84-35.84h219.0336c19.7632 0 35.84 16.0768 35.84 35.84s-15.9744 35.84-35.84 35.84zM837.2224 489.2672H687.0016c-19.7632 0-35.84-16.0768-35.84-35.84s16.0768-35.84 35.84-35.84h150.2208c19.7632 0 35.84 16.0768 35.84 35.84s-15.9744 35.84-35.84 35.84zM837.2224 614.7072H687.0016c-19.7632 0-35.84-16.0768-35.84-35.84s16.0768-35.84 35.84-35.84h150.2208c19.7632 0 35.84 16.0768 35.84 35.84s-15.9744 35.84-35.84 35.84z" fill="#004198" p-id="9357"></path><path d="M930.816 835.2768H93.184c-19.7632 0-35.84-16.0768-35.84-35.84V224.5632c0-19.7632 16.0768-35.84 35.84-35.84h837.632c19.7632 0 35.84 16.0768 35.84 35.84v574.8736c0 19.7632-16.0768 35.84-35.84 35.84z m-801.792-71.68h765.952V260.4032H129.024v503.1936z" fill="#004198" p-id="9358"></path></svg>