<?xml version="1.0" standalone="no"?><!DOCTYPE svg PUBLIC "-//W3C//DTD SVG 1.1//EN" "http://www.w3.org/Graphics/SVG/1.1/DTD/svg11.dtd"><svg t="1557496982233" class="icon" style="" viewBox="0 0 1024 1024" version="1.1" xmlns="http://www.w3.org/2000/svg" p-id="3856" xmlns:xlink="http://www.w3.org/1999/xlink" width="45" height="45"><defs><style type="text/css"></style></defs><path d="M128.8 1005.6H0v-395.2h128.8v395.2z m-116.8-12h104.4v-371.2H12v371.2z" fill="#4A555F" p-id="3857"></path><path d="M26 636.4h76.4v342.8H26z" fill="#FFD552" p-id="3858"></path><path d="M312.8 1005.6H184v-668h128.8v668z m-116.8-12h104.4v-644H196v644z" fill="#4A555F" p-id="3859"></path><path d="M210.4 363.6h76.4v615.6H210.4z" fill="#71CDE1" p-id="3860"></path><path d="M512.4 1005.6H383.6v-291.6h128.8v291.6z m-116.8-12H500v-267.2H395.6v267.2z" fill="#4A555F" p-id="3861"></path><path d="M410 740.4h76.4v239.2h-76.4z" fill="#E0E0E0" p-id="3862"></path><path d="M712 1005.6h-128.8V412.8l7.6 2c6.4 1.6 12.8 3.2 19.6 4.4 10.8 2 21.6 2.8 32.8 2.8 14 0 28-1.6 41.6-4.4 6.4-1.6 13.2-3.2 19.6-5.2l8-2.4v595.6z m-116.8-12H700V426c-4.4 1.2-8.4 2.4-12.8 3.2-14.4 3.2-29.2 4.8-44 4.8-11.6 0-23.2-0.8-34.8-2.8-4.4-0.8-8.8-1.6-13.2-2.8v565.2z" fill="#4A555F" p-id="3863"></path><path d="M686 423.6v556h-76.4V425.2c25.2 4.4 51.2 3.6 76.4-1.6z" fill="#F68F6F" p-id="3864"></path><path d="M643.2 434c-55.6 0-107.6-21.6-146.8-60.8-81.2-81.2-81.2-212.8 0-294C535.6 40 588 18.4 643.2 18.4s107.6 21.6 146.8 60.8c81.2 81.2 81.2 212.8 0 294-39.2 39.2-91.2 60.8-146.8 60.8z m0-403.6c-52.4 0-101.6 20.4-138.4 57.2-76.4 76.4-76.4 200.4 0 276.8 36.8 36.8 86 57.2 138.4 57.2 52.4 0 101.6-20.4 138.4-57.2 76.4-76.4 76.4-200.4 0-276.8-37.2-36.8-86.4-57.2-138.4-57.2z m0 338c-38 0-73.6-14.8-100.4-41.6-26.8-26.8-41.6-62.4-41.6-100.4 0-38 14.8-73.6 41.6-100.4 26.8-26.8 62.4-41.6 100.4-41.6 38 0 73.6 14.8 100.4 41.6 55.2 55.2 55.2 145.6 0 200.8-26.8 26.8-62.4 41.6-100.4 41.6z m0-272.4c-34.8 0-67.2 13.6-92 38-24.4 24.4-38 57.2-38 92s13.6 67.2 38 92c24.4 24.4 57.2 38 92 38s67.2-13.6 92-38c50.8-50.8 50.8-133.2 0-184-24.8-24.4-57.6-38-92-38z" fill="#4A555F" p-id="3865"></path><path d="M643.2 408.8c-48.8 0-94.8-18.8-129.2-53.6-71.2-71.2-71.2-186.8 0-258 34.4-34.4 80.4-53.6 129.2-53.6 48.8 0 94.4 18.8 129.2 53.6 71.2 71.2 71.2 187.2 0 258-34.8 34.4-80.4 53.6-129.2 53.6z m0-338c-41.6 0-80.4 16-109.6 45.6-29.2 29.2-45.6 68.4-45.6 109.6 0 41.6 16 80.4 45.6 110 29.2 29.2 68.4 45.6 109.6 45.6 41.6 0 80.4-16 110-45.6 60.4-60.4 60.4-159.2 0-219.6-29.6-29.2-68.8-45.6-110-45.6z" fill="#71CDE1" p-id="3866"></path><path d="M924.4 578l-142.8-142.8c-9.6-9.6-14.8-22-14.8-35.2 0-13.2 5.2-26 14.8-35.2 9.6-9.6 22-14.8 35.2-14.8 13.2 0 26 5.2 35.2 14.8l142.8 142.8-70.4 70.4z m-107.6-216c-10 0-19.6 4-26.8 11.2-7.2 7.2-11.2 16.8-11.2 26.8s4 19.6 11.2 26.8l134.4 134.4 53.6-53.6-134.4-134.4c-7.2-7.2-16.4-11.2-26.8-11.2z" fill="#4A555F" p-id="3867"></path><path d="M799.6 417.6c-9.6-9.6-9.6-25.2 0-34.8 4.8-4.8 10.8-7.2 17.6-7.2 6.8 0 12.8 2.4 17.6 7.2l124.8 124.8-34.8 34.8-125.2-124.8z" fill="#F68F6F" p-id="3868"></path><path d="M964 607.2c-6.8 0-13.6-2.8-18.4-7.6l-30-30 70.8-70.8 30 30c4.8 4.8 7.6 11.6 7.6 18.4 0 6.8-2.8 13.6-7.6 18.4l-34 34c-4.8 4.8-11.6 7.6-18.4 7.6z m-31.2-37.6l21.2 21.2c5.2 5.2 14.4 5.2 19.6 0l34-34c2.8-2.8 4-6 4-10 0-3.6-1.6-7.2-4-10l-21.2-21.2-53.6 54z" fill="#4A555F" p-id="3869"></path><path d="M964 581.6c-0.4 0-0.4 0-0.4-0.4l-12-12 34.8-34.8 12 12c0.4 0.4 0.4 0.8 0 0.8l-34 34c0 0.4 0 0.4-0.4 0.4z" fill="#FFD552" p-id="3870"></path><path d="M248.4 248.8c-26.8 0-48.8-22-48.8-48.8 0-26.8 22-48.8 48.8-48.8S297.2 173.2 297.2 200c0 26.8-22 48.8-48.8 48.8z m0-86c-20.4 0-36.8 16.4-36.8 36.8s16.4 36.8 36.8 36.8 36.8-16.4 36.8-36.8-16.4-36.8-36.8-36.8z" fill="#4A555F" p-id="3871"></path><path d="M248.4 222.4c-12.4 0-22.8-10-22.8-22.8s10-22.8 22.8-22.8c12.4 0 22.8 10 22.8 22.8s-10.4 22.8-22.8 22.8z" fill="#FFD552" p-id="3872"></path><path d="M448 665.2c-26.8 0-48.8-22-48.8-48.8 0-26.8 22-48.8 48.8-48.8 26.8 0 48.8 22 48.8 48.8 0 27.2-22 48.8-48.8 48.8z m0-85.6c-20.4 0-36.8 16.4-36.8 36.8s16.4 36.8 36.8 36.8 36.8-16.4 36.8-36.8-16.4-36.8-36.8-36.8z" fill="#4A555F" p-id="3873"></path><path d="M448 639.2c-12.4 0-22.8-10-22.8-22.8s10-22.8 22.8-22.8 22.8 10 22.8 22.8-10.4 22.8-22.8 22.8z" fill="#FFD552" p-id="3874"></path><path d="M643.2 285.6c-44.8 0-81.2-36.4-81.2-81.2s36.4-81.2 81.2-81.2S724 159.6 724 204.4s-36.4 81.2-80.8 81.2z m0-150c-38 0-68.8 30.8-68.8 68.8s30.8 68.8 68.8 68.8S712 242.4 712 204.4s-30.8-68.8-68.8-68.8z" fill="#4A555F" p-id="3875"></path><path d="M643.2 259.2c-30.4 0-54.8-24.8-54.8-54.8s24.8-54.8 54.8-54.8c30.4 0 54.8 24.8 54.8 54.8s-24.8 54.8-54.8 54.8z" fill="#FFD552" p-id="3876"></path><path d="M64.4 519.2c-26.8 0-48.8-22-48.8-48.8 0-26.8 22-48.8 48.8-48.8 26.8 0 48.8 22 48.8 48.8 0 26.8-22 48.8-48.8 48.8z m0-85.6c-20.4 0-36.8 16.4-36.8 36.8s16.4 36.8 36.8 36.8 36.8-16.4 36.8-36.8-16.4-36.8-36.8-36.8z" fill="#4A555F" p-id="3877"></path><path d="M64.4 493.2c-12.4 0-22.8-10-22.8-22.8 0-12.4 10-22.8 22.8-22.8 12.4 0 22.8 10 22.8 22.8 0 12.4-10.4 22.8-22.8 22.8z" fill="#FFD552" p-id="3878"></path><path d="M102.4 416l-10.4-6 6-10.4 10.4 6-6 10.4z m12-21.2L104 388.8l6-10.4 10.4 6-6 10.4z m12-20.8L116 368l6-10.4 10.4 6-6 10.4z m12-20.8L128 347.2l6-10.4 10.4 6-6 10.4z m12-20.8L140 326.4l6-10.4 10.4 6-6 10.4z m12-21.2L152 305.2l6-10.4 10.4 6-6 10.4z m12.4-20.8l-10.4-6 6-10.4 10.4 6-6 10.4z m12-20.8l-10.4-6 6-10.4 10.4 6-6 10.4zM435.6 540.4l-4.4-10 10.8-4.8 4.4 10-10.8 4.8z m-9.6-20.8l-4.8-10.8 10.8-4.8 4.8 10.8-10.8 4.8z m-10-22l-4.8-10.8 10.8-4.8 4.8 10.8-10.8 4.8z m-10-22l-4.8-10.8 10.8-4.8 4.8 10.8-10.8 4.8z m-9.6-22l-4.8-10.8 10.8-4.8 4.8 10.8-10.8 4.8z m-10-22l-4.8-10.8 10.8-4.8 4.8 10.8-10.8 4.8z m-10-22l-4.8-10.8 10.8-4.8 4.8 10.8-10.8 4.8z m-10-22l-4.8-10.8 10.8-4.8 4.8 10.8-10.8 4.8z m-10-22l-4.8-10.8 10.8-4.8 4.8 10.8-10.8 4.8zM346.4 344l-4.8-10.8 10.8-4.8 4.8 10.8-10.8 4.8z m-10-22l-4.8-10.8 10.8-4.8 4.8 10.8-10.8 4.8zM326.4 300l-4.8-10.8 10.8-4.8 4.8 10.8-10.8 4.8z m-10-22l-4.8-10.8 10.8-4.8 4.8 10.8-10.8 4.8zM306.4 256l-4.8-10.8 10.8-4.8 4.8 10.8-10.8 4.8zM470.4 541.6l-10.8-5.2 5.2-10.8 10.8 5.2-5.2 10.8z m10.8-21.6l-10.8-5.2 5.2-10.8 10.8 5.2-5.2 10.8z m10.4-21.6l-10.8-5.2 5.2-10.8 10.8 5.2-5.2 10.8z m10.8-21.6l-10.8-5.2 5.2-10.8 10.8 5.2-5.2 10.8z m10.8-21.6l-10.8-5.2 5.2-10.8 10.8 5.2-5.2 10.8z m10.8-21.6l-10.8-5.2 5.2-10.8 10.8 5.2-5.2 10.8zM580.4 320.4l-10.8-5.2 5.2-10.8 10.8 5.2-5.2 10.8z m10.8-21.2l-10.8-5.2 5.2-10.8 10.8 5.2-5.2 10.8zM6 993.6h989.6v12H6z" fill="#4A555F" p-id="3879"></path><path d="M776.4 650.8h45.2V696h-45.2z" fill="#FFD552" p-id="3880"></path><path d="M776.4 727.2h45.2v45.2h-45.2z" fill="#71CDE1" p-id="3881"></path><path d="M776.4 803.6h45.2v45.2h-45.2z" fill="#E0E0E0" p-id="3882"></path><path d="M776.4 880h45.2v45.2h-45.2z" fill="#F68F6F" p-id="3883"></path><path d="M827.6 702h-57.2v-57.2h57.2v57.2z m-45.2-12h33.2v-33.2h-33.2v33.2z" fill="#4A555F" p-id="3884"></path><path d="M827.6 778.4h-57.2v-57.2h57.2v57.2z m-45.2-12h33.2v-33.2h-33.2v33.2z" fill="#4A555F" p-id="3885"></path><path d="M827.6 854.8h-57.2v-57.2h57.2v57.2z m-45.2-12h33.2v-33.2h-33.2v33.2z" fill="#4A555F" p-id="3886"></path><path d="M827.6 931.2h-57.2v-57.2h57.2v57.2z m-45.2-12h33.2v-33.2h-33.2v33.2z" fill="#4A555F" p-id="3887"></path><path d="M972 679.2h-12v-12h12v12z m-24 0h-12v-12h12v12z m-24 0h-12v-12h12v12z m-24.4 0h-12v-12h12v12z m-24 0h-12v-12h12v12z" fill="#4A555F" p-id="3888"></path><path d="M972 755.6h-12v-12h12v12z m-24 0h-12v-12h12v12z m-24 0h-12v-12h12v12z m-24.4 0h-12v-12h12v12z m-24 0h-12v-12h12v12z" fill="#4A555F" p-id="3889"></path><path d="M972 832h-12v-12h12v12z m-24 0h-12v-12h12v12z m-24 0h-12v-12h12v12z m-24.4 0h-12v-12h12v12z m-24 0h-12v-12h12v12z" fill="#4A555F" p-id="3890"></path><path d="M972 908.4h-12v-12h12v12z m-24 0h-12v-12h12v12z m-24 0h-12v-12h12v12z m-24.4 0h-12v-12h12v12z m-24 0h-12v-12h12v12z" fill="#4A555F" p-id="3891"></path></svg>