<?xml version="1.0" standalone="no"?><!DOCTYPE svg PUBLIC "-//W3C//DTD SVG 1.1//EN" "http://www.w3.org/Graphics/SVG/1.1/DTD/svg11.dtd"><svg t="1551066572655" class="icon" style="" viewBox="0 0 1024 1024" version="1.1" xmlns="http://www.w3.org/2000/svg" p-id="3166" xmlns:xlink="http://www.w3.org/1999/xlink" width="28" height="28"><defs><style type="text/css"></style></defs><path d="M597.193 704H865V159H159v545h267.643l85.275 153.445L597.193 704z m-41.57 198.32a50 50 0 0 1-19.417 19.416c-24.137 13.414-54.579 4.72-67.993-19.417L391.344 764H159c-33.137 0-60-26.863-60-60V159c0-33.137 26.863-60 60-60h706c33.137 0 60 26.863 60 60v545c0 33.137-26.863 60-60 60H632.491l-76.869 138.32z" fill="#dbdbdb" p-id="3167"></path><path d="M274.5 431.5c0-30.376 24.624-55 55-55s55 24.624 55 55-24.624 55-55 55-55-24.624-55-55z m183 0c0-30.376 24.624-55 55-55s55 24.624 55 55-24.624 55-55 55-55-24.624-55-55z m182 0c0-30.376 24.624-55 55-55s55 24.624 55 55-24.624 55-55 55-55-24.624-55-55z" fill="#dbdbdb" p-id="3168"></path></svg>