<?xml version="1.0" standalone="no"?><!DOCTYPE svg PUBLIC "-//W3C//DTD SVG 1.1//EN" "http://www.w3.org/Graphics/SVG/1.1/DTD/svg11.dtd"><svg t="1557496719375" class="icon" style="" viewBox="0 0 1024 1024" version="1.1" xmlns="http://www.w3.org/2000/svg" p-id="3856" xmlns:xlink="http://www.w3.org/1999/xlink" width="45" height="45"><defs><style type="text/css"></style></defs><path d="M928 861.6H161.6c-37.6 0-68.4-30.8-68.4-68.4V360.4l11.2 13.6c8 9.6 15.2 19.6 21.6 29.6 11.2 17.6 20.8 35.6 28.4 54.4 14.4 35.6 21.6 73.2 21.6 112v141.2h742V208.4H398.4v-29.2l-75.2-29.6 14-32h591.2c37.6 0 68 30.4 68 68v607.2c0 38-30.8 68.8-68.4 68.8zM105.6 396v397.2c0 30.8 25.2 56 56 56H928c30.8 0 56-25.2 56-56V186c0-30.8-24.8-55.6-55.6-55.6H345.2l-5.6 12.8 71.2 28V196h519.6v527.6H163.6v-154c0-37.2-7.2-73.2-20.8-107.2-7.2-18-16.4-35.6-27.2-52.4-3.2-4.4-6.4-9.2-10-14z" fill="#4A555F" p-id="3857"></path><path d="M958.4 155.6c-6.4-6.4-15.6-10.4-25.2-10.4H332l-0.4 1.2 73.2 28.8v6h540.8v557.6H148.4V460c-8-19.6-17.6-37.6-28-53.2v386.4c0 22.8 18.4 40.8 41.2 40.8H928c22.8 0 40.8-18.4 40.8-40.8v-612c0-10-4-19.2-10.4-25.6z" fill="#E0E0E0" p-id="3858"></path><path d="M690.8 968.4h-283.2l49.6-119.2h183.6l50 119.2z m-264.4-12.4H672l-39.2-94.4h-167.2l-39.2 94.4z" fill="#4A555F" p-id="3859"></path><path d="M448.8 940.8l26.8-64h147.2l26.8 64z" fill="#E0E0E0" p-id="3860"></path><path d="M806 1024H292.4v-68h513.6v68z m-501.2-12.4h488.8v-43.2H304.8v43.2z" fill="#4A555F" p-id="3861"></path><path d="M320 983.6h458.4v13.2H320z" fill="#E0E0E0" p-id="3862"></path><path d="M122.8 1011.6h852.4v12.4H122.8z" fill="#4A555F" p-id="3863"></path><path d="M550 787.2m-33.6 0a33.6 33.6 0 1 0 67.2 0 33.6 33.6 0 1 0-67.2 0Z" fill="#FFFFFF" p-id="3864"></path><path d="M550 827.2c-22 0-39.6-18-39.6-39.6 0-22 18-39.6 39.6-39.6 22 0 39.6 18 39.6 39.6s-18 39.6-39.6 39.6z m0-67.2c-15.2 0-27.2 12.4-27.2 27.2 0 15.2 12.4 27.2 27.2 27.2 15.2 0 27.2-12.4 27.2-27.2 0-15.2-12.4-27.2-27.2-27.2zM337.6 238.8H246.4l12-10.8c10.8-10 17.2-24 17.2-38.4 0-18.8-10.4-36.4-26.8-45.6-8-4.4-16.8-6.8-26-6.8-29.2 0-52.8 23.6-52.8 52.8 0 9.6 2.4 18.8 7.2 26.8 2.8 4.4 6 8.4 9.6 12l11.6 10.8H103.2l2.4-5.6-71.2-28v-39.2l71.2-28-30.4-70 4.4-4.8 23.2-23.2 70 30.4 28-71.2H240l28 71.2 70-30.4 3.6 4 28.4 28.4-30.4 70 71.2 28v39.2l-73.2 28.4zM276 226.4h59.2l63.2-24.8v-22l-75.2-29.6L355.6 76l-20.4-20.4L261.2 88 231.6 12.4h-22L180 87.6l-74-32.4-15.6 15.6 32.4 74-75.2 29.6v22l74.8 29.6h47.2c-0.8-1.2-1.6-2.8-2.4-4-6-10-9.2-21.2-9.2-33.2 0-36 29.2-65.2 65.2-65.2 11.2 0 22.4 2.8 32.4 8.8 20.4 11.6 32.8 33.2 32.8 56.4-0.8 13.6-4.8 26.8-12.4 37.6z" fill="#4A555F" p-id="3865"></path><path d="M384 189.2l-80-31.6 34.4-78.8-6.4-6-78.8 34.4-31.6-80h-2.4l-31.6 80-78.8-34.4-1.6 1.6 34.4 78.8-80 31.2v2.4l80 31.6-6 14H156c-0.4-0.8-1.2-1.6-1.6-2.8-7.2-12-11.2-26.4-11.2-40.4 0-44 35.6-79.6 79.6-79.6 14 0 27.6 3.6 39.2 10.4 24.8 14 40.4 40.8 40.4 69.2 0 16-4.8 30.8-12.8 43.2H308l-4-9.6 80-31.6v-2z" fill="#F68F6F" p-id="3866"></path><path d="M282 618H163.6v-48.4c0-160.8-132-248-133.2-248.8l-2.8-2V226.4h390.4v93.2l-2.8 2c-1.2 0.8-133.2 88-133.2 248.8v47.6zM176 605.6h93.6v-36c0-154 116.4-243.2 136-257.2V238.8H40v74c20 14 136 103.2 136 257.2v35.6z" fill="#4A555F" p-id="3867"></path><path d="M190.4 591.2v-21.6c0-150.8-103.6-240.4-136-264.8v-52h336.8v52c-32.4 24.4-136 113.6-136 264.8v21.6H190.4z" fill="#71CDE1" p-id="3868"></path><path d="M386.8 322h-12.4v-12.4h12.4v12.4z m-25.2 0h-12.4v-12.4h12.4v12.4z m-24.8 0h-12.4v-12.4h12.4v12.4z m-24.8 0h-12.4v-12.4H312v12.4z m-24.8 0h-12.4v-12.4h12.4v12.4z m-24.8 0h-12.4v-12.4h12.4v12.4z m-24.8 0h-12.4v-12.4h12.4v12.4z m-24.8 0h-12.4v-12.4h12.4v12.4z m-24.8 0h-12.4v-12.4H188v12.4z m-24.8 0h-12.4v-12.4h12.4v12.4z m-24.8 0h-12.4v-12.4h12.4v12.4z m-25.2 0h-12.4v-12.4h12.4v12.4z m-24.8 0H76v-12.4h12.4v12.4z m-24.8 0h-12.4v-12.4h12.4v12.4z" fill="#4A555F" p-id="3869"></path><path d="M510.8 650.8H398.4v-102.4h112.4v102.4z m-100-12.8h87.6v-77.6h-87.6v77.6z" fill="#4A555F" p-id="3870"></path><path d="M425.2 575.2h58.4v48.4h-58.4z" fill="#FFD552" p-id="3871"></path><path d="M674 650.8h-112.4v-187.2h112.4v187.2z m-100-12.8h87.6V476h-87.6v162z" fill="#4A555F" p-id="3872"></path><path d="M588.4 490.4h58.4V624h-58.4z" fill="#FFD552" p-id="3873"></path><path d="M840.8 650.8h-112.4V360.8h112.4v290z m-100-12.8h87.6V373.2h-87.6v264.8z" fill="#4A555F" p-id="3874"></path><path d="M755.2 387.6h58.4v236h-58.4z" fill="#FFD552" p-id="3875"></path><path d="M656.976 288.708l7.692 9.728-258.26 204.136-7.688-9.724z" fill="#4A555F" p-id="3876"></path><path d="M665.6 347.6h-12.4V298.4h-50v-12.4h62.4z" fill="#4A555F" p-id="3877"></path></svg>