<?xml version="1.0" standalone="no"?><!DOCTYPE svg PUBLIC "-//W3C//DTD SVG 1.1//EN" "http://www.w3.org/Graphics/SVG/1.1/DTD/svg11.dtd"><svg t="1552527479266" class="icon" style="" viewBox="0 0 1024 1024" version="1.1" xmlns="http://www.w3.org/2000/svg" p-id="4928" xmlns:xlink="http://www.w3.org/1999/xlink" width="28" height="28"><defs><style type="text/css"></style></defs><path d="M853.333333 956.586667a17.066667 17.066667 0 0 1-17.066666-17.066667v-68.266667h-68.266667a17.066667 17.066667 0 1 1 0-34.133333h68.266667v-68.266667a17.066667 17.066667 0 1 1 34.133333 0v68.266667h68.266667a17.066667 17.066667 0 1 1 0 34.133333h-68.266667v68.266667a17.066667 17.066667 0 0 1-17.066667 17.066667z m-341.333333-85.333334h-0.034133a17.083733 17.083733 0 0 1-12.6464-5.649066l-384.853334-427.52C83.490133 397.124267 68.266667 350.600533 68.266667 298.666667c0-63.5904 22.647467-118.459733 67.293866-163.106134S235.076267 68.266667 298.666667 68.266667s118.459733 22.647467 163.106133 67.293866c22.391467 22.391467 39.2704 47.325867 50.517333 74.5984 11.264-27.682133 28.228267-52.906667 50.7904-75.451733 44.612267-44.6464 99.498667-67.293867 163.106134-67.293867 63.5904 0 118.442667 22.647467 163.1232 67.293867 44.6464 44.6464 67.2768 99.5328 67.2768 163.106133 0 55.773867-17.152 104.772267-50.978134 145.698134l-3.669333 5.853866a16.6912 16.6912 0 0 1-1.826133 2.423467l-375.466667 413.866667c-3.242667 3.566933-7.8336 5.597867-12.6464 5.597866zM298.666667 102.4c-54.971733 0-100.420267 18.7392-138.973867 57.2928S102.4 243.694933 102.4 298.666667c0 44.970667 12.544 83.490133 38.382933 117.725866l371.268267 412.347734 361.745067-398.762667 3.464533-5.5296a16.674133 16.674133 0 0 1 1.365333-1.8944c29.4912-35.293867 43.810133-76.0832 43.810134-124.740267 0-54.954667-18.7392-100.420267-57.275734-138.973866-38.570667-38.5536-84.0192-57.2928-138.990933-57.2928-54.9888 0-100.437333 18.7392-138.973867 57.2928-36.9664 36.949333-55.7056 80.349867-57.2928 132.6592a17.066667 17.066667 0 0 1-17.066666 16.5376c-9.233067 0-17.629867-7.3216-17.902934-16.5376-1.5872-51.729067-20.3264-94.839467-57.2928-131.822934C399.086933 121.1392 353.6384 102.4 298.666667 102.4z" p-id="4929" fill="#839BFF"></path></svg>