<?xml version="1.0" standalone="no"?><!DOCTYPE svg PUBLIC "-//W3C//DTD SVG 1.1//EN" "http://www.w3.org/Graphics/SVG/1.1/DTD/svg11.dtd"><svg t="1551332537193" class="icon" style="" viewBox="0 0 1024 1024" version="1.1" xmlns="http://www.w3.org/2000/svg" p-id="19703" xmlns:xlink="http://www.w3.org/1999/xlink" width="20" height="20"><defs><style type="text/css"></style></defs><path d="M896 0H128C57.344 0 0 57.344 0 128v768c0 70.656 57.344 128 128 128h768c70.656 0 128-57.344 128-128V128c0-70.656-57.344-128-128-128z m64 896c0 35.38944-28.60544 64-64 64H128c-35.328 0-64-28.61056-64-64V128c0-35.328 28.672-64 64-64h768c35.38944 0 64 28.672 64 64v768z" fill="#839BFF" p-id="19704"></path></svg>