<?xml version="1.0" standalone="no"?><!DOCTYPE svg PUBLIC "-//W3C//DTD SVG 1.1//EN" "http://www.w3.org/Graphics/SVG/1.1/DTD/svg11.dtd"><svg t="1551340246581" class="icon" style="" viewBox="0 0 1024 1024" version="1.1" xmlns="http://www.w3.org/2000/svg" p-id="23132" xmlns:xlink="http://www.w3.org/1999/xlink" width="26" height="26"><defs><style type="text/css"></style></defs><path d="M512 950.857143c-241.371429 0-438.857143-197.485714-438.857143-438.857143s197.485714-438.857143 438.857143-438.857143c87.771429 0 175.542857 29.257143 248.685714 73.142857l65.828572-51.2C738.742857 43.885714 621.714286 0 512 0 226.742857 0 0 226.742857 0 512s226.742857 512 512 512c21.942857 0 36.571429-14.628571 36.571429-36.571429S533.942857 950.857143 512 950.857143zM438.857143 526.628571l234.057143 138.971429c21.942857 14.628571 21.942857 36.571429 14.628571 51.2-7.314286 14.628571-29.257143 21.942857-51.2 7.314286l-256-146.285715s-7.314286 0-14.628571-14.628571V256c0-21.942857 14.628571-36.571429 36.571428-36.571429s36.571429 14.628571 36.571429 36.571429v270.628571z m446.171428-299.885714c0 14.628571-7.314286 14.628571-21.942857 14.628572L731.428571 204.8s-7.314286 0-7.314285-7.314286c-7.314286-7.314286 0-14.628571 0-21.942857l131.657143-95.085714h7.314285c14.628571-7.314286 14.628571 0 14.628572 7.314286l7.314285 138.971428z m-146.285714 760.685714c-14.628571 7.314286-36.571429 0-51.2-14.628571s0-36.571429 14.628572-51.2c21.942857-7.314286 36.571429-21.942857 58.514285-36.571429 14.628571-14.628571 36.571429-7.314286 51.2 7.314286s7.314286 36.571429-7.314285 51.2c-14.628571 21.942857-36.571429 29.257143-65.828572 43.885714z m182.857143-153.6c-14.628571 14.628571-36.571429 21.942857-51.2 7.314286-14.628571-14.628571-21.942857-36.571429-7.314286-51.2 14.628571-14.628571 21.942857-36.571429 36.571429-58.514286 7.314286-14.628571 29.257143-21.942857 51.2-14.628571 14.628571 7.314286 21.942857 29.257143 14.628571 51.2l-43.885714 65.828571z m95.085714-226.742857c0 21.942857-21.942857 36.571429-43.885714 29.257143s-36.571429-21.942857-29.257143-43.885714c7.314286-14.628571 7.314286-36.571429 7.314286-58.514286 0-21.942857 14.628571-36.571429 36.571428-36.571428s36.571429 14.628571 36.571429 36.571428 0 51.2-7.314286 73.142857z m-14.628571-219.428571c7.314286 21.942857-7.314286 36.571429-21.942857 43.885714-21.942857 7.314286-36.571429-7.314286-43.885715-21.942857l-21.942857-65.828571c-7.314286-14.628571 0-36.571429 14.628572-51.2s36.571429 0 51.2 14.628571c7.314286 29.257143 14.628571 51.2 21.942857 80.457143z" p-id="23133" fill="#839BFF"></path></svg>