<?xml version="1.0" standalone="no"?><!DOCTYPE svg PUBLIC "-//W3C//DTD SVG 1.1//EN" "http://www.w3.org/Graphics/SVG/1.1/DTD/svg11.dtd"><svg t="1557495662328" class="icon" style="" viewBox="0 0 1024 1024" version="1.1" xmlns="http://www.w3.org/2000/svg" p-id="3856" xmlns:xlink="http://www.w3.org/1999/xlink" width="75" height="75"><defs><style type="text/css"></style></defs><path d="M919.2 1024H104.8c-37.2 0-67.2-30-67.2-67.2v-36.4h948.8v36.4c0 37.2-30 67.2-67.2 67.2zM49.6 932.4v24.4c0 30.4 24.8 55.2 55.2 55.2h814.4c30.4 0 55.2-24.8 55.2-55.2v-24.4H49.6z" fill="#4A555F" p-id="3857"></path><path d="M104.8 997.6c-22.4 0-40.8-18.4-40.8-40.8v-10h896v10c0 22.4-18.4 40.8-40.8 40.8H104.8z" fill="#E0E0E0" p-id="3858"></path><path d="M560.4 976.4h-97.2c-19.6 0-35.2-16-35.2-35.2v-20.8h168v20.8c0 19.2-16 35.2-35.6 35.2z m-120-44v8.4c0 12.8 10.4 23.2 23.2 23.2h97.2c12.8 0 23.2-10.4 23.2-23.2v-8.4h-143.6z" fill="#4A555F" p-id="3859"></path><path d="M850.4 932.4H173.6c-29.2 0-52.8-23.6-52.8-52.8V421.6c0-29.2 23.6-52.8 52.8-52.8h206l32.8 76.4H194v416h636v-416h-218.8l32.8-76.4h206c29.2 0 52.8 23.6 52.8 52.8v458c0.4 29.2-23.2 52.8-52.4 52.8zM173.6 380.8c-22.4 0-40.8 18.4-40.8 40.8v458c0 22.4 18.4 40.8 40.8 40.8h676.8c22.4 0 40.8-18.4 40.8-40.8V421.6c0-22.4-18.4-40.8-40.8-40.8h-198l-22.4 52h212.4v440H182v-440h212.4l-22.4-52H173.6z" fill="#4A555F" p-id="3860"></path><path d="M850.4 395.2h-210.8l-10.4 23.6h227.2v468.4H167.6V418.8h227.2l-10.4-23.6H173.6c-14.8 0-26.8 12-26.8 26.4v458c0 14.8 12 26.8 26.8 26.8h676.8c14.8 0 26.4-12 26.4-26.8V421.6c0-14.4-11.6-26.4-26.4-26.4z" fill="#E0E0E0" p-id="3861"></path><path d="M591.6 582h-159.2V576c0-36.4-7.2-71.6-22-105.2L361.2 356.4c-10.8-25.2-14.8-52.8-12.4-80.4 7.6-78.8 72.8-142 151.6-147.6 4-0.4 7.6-0.4 11.6-0.4 90.4 0 164 73.6 164 164 0 23.6-4.8 46.4-14.8 67.6l-48 111.2c-14.4 33.2-21.6 68.8-21.6 105.2v6z m-147.2-12h134.8c0.8-36 8.4-70.8 22.8-104l48-111.2c9.2-20 13.6-40.8 13.6-62.8 0-83.6-68-152-152-152-3.6 0-7.2 0-10.8 0.4-72.4 5.2-132.8 64-140 136.8-2.4 26 1.2 50.8 11.2 74.4l49.6 114.4c14.4 33.2 22 68 22.8 104z" fill="#4A555F" p-id="3862"></path><path d="M458 555.6c-2.4-32.8-10-64.8-23.2-95.6L385.2 346c-9.2-21.2-12.4-44-10.4-67.2 6.4-66 61.2-119.2 127.2-123.6 3.2-0.4 6.4-0.4 9.6-0.4 76 0 137.6 61.6 137.6 137.6 0 19.6-4 38.8-12.4 56.8l-48.4 111.6c-13.2 30.4-21.2 62.4-23.2 95.6h-107.2z" fill="#FFD552" p-id="3863"></path><path d="M591.6 666.4h-159.2v-96.4h159.2v96.4z m-147.2-12h135.2v-72.4h-134.8v72.4z" fill="#4A555F" p-id="3864"></path><path d="M458.8 640v-43.6h106.4V640z" fill="#F68F6F" p-id="3865"></path><path d="M538.8 717.2h-53.6l-7.6-24h-12.8c-18 0-32.8-14.8-32.8-32.8v-6h159.2v6c0 18-14.8 32.8-32.8 32.8h-12.8l-6.8 24z m-44.8-12.4h35.6l7.6-24h21.6c9.2 0 16.8-6 19.6-14.4h-133.2c2.4 8.4 10.4 14.4 19.6 14.4h21.6l7.6 24zM560.8 576h-12v-106c0-43.2 8.8-84.8 25.6-124.4l8.8-20.4c4.4-9.6 3.2-20.8-2.8-30-6-8.8-15.6-14.4-26.4-14.4-12.4 0-24 7.2-28.8 18.8l-6.8 15.2 9.6 21.6c2.4 5.6 2 11.6-1.2 16.8-3.2 5.2-8.8 8-14.8 8s-11.6-3.2-14.8-8c-3.2-5.2-3.6-11.2-1.2-16.8l9.6-21.6-6.8-15.2c-5.2-11.6-16.4-18.8-28.8-18.8-10.8 0-20.4 5.2-26.4 14.4-6 8.8-6.8 20-2.8 30l8.8 20.4c17.2 39.6 25.6 81.6 25.6 124.4V576h-12v-106c0-41.6-8.4-81.6-24.8-119.6l-8.8-20.4c-6-13.6-4.4-29.2 3.6-41.2 8-12.4 21.6-19.6 36.4-19.6 17.2 0 32.8 10.4 40 26l2.4 4.8 2.4-5.2c7.2-15.6 22.8-26 40-26 14.8 0 28.4 7.2 36.4 19.6 8 12.4 9.6 27.6 3.6 41.2l-8.8 20.4c-16.4 38-24.8 78.4-24.8 119.6V576zM512 330l-5.2 11.6c-0.8 1.6-0.8 3.6 0.4 5.2 2 3.2 7.2 3.2 9.2 0 1.2-1.6 1.2-3.6 0.4-5.2l-4.8-11.6zM506 0h12v74.4h-12zM655.2 131.6l-10.4-6.4 6.4-10.4 10.4 6.4-6.4 10.4z m12.8-20.4l-10.4-6.4 6.4-10.4 10.4 6.4-6.4 10.4z m13.2-20.4l-10.4-6.4 6.4-10.4 10.4 6.4-6.4 10.4zM792.84 278.672l0.076 12-64 0.416-0.08-12z" fill="#4A555F" p-id="3866"></path><path d="M293.336 278.964l0.08 12-64 0.416-0.08-12z" fill="#4A555F" p-id="3867"></path><path d="M365.2 131.6l-6.4-10.4 10.4-6.4 6.4 10.4-10.4 6.4zM352 111.2l-6.4-10.4 10.4-6.4 6.4 10.4-10.4 6.4z m-13.2-20.4l-6.4-10.4 10.4-6.4 6.4 10.4-10.4 6.4z" fill="#4A555F" p-id="3868"></path><path d="M632.4 818.4V724c0-18.4 15.2-33.6 33.6-33.6h88.4c18.4 0 33.6 15.2 33.6 33.6v27.2c0 18.4-15.2 33.6-33.6 33.6h-82l-40 33.6z m33.6-115.6c-11.6 0-21.2 9.6-21.2 21.2v68.4l23.6-19.6h86.4c11.6 0 21.2-9.6 21.2-21.2V724c0-11.6-9.6-21.2-21.2-21.2h-88.8z" fill="#4A555F" p-id="3869"></path><path d="M658.8 724c0-4 3.2-7.2 7.2-7.2h88.4c4 0 7.2 3.2 7.2 7.2v27.2c0 4-3.2 7.2-7.2 7.2h-91.2l-4.4 3.6V724z" fill="#71CDE1" p-id="3870"></path><path d="M673.2 732h15.2v12h-15.2zM702.8 732h15.2v12h-15.2zM732 732h15.2v12H732z" fill="#4A555F" p-id="3871"></path><path d="M369.6 808H279.2c-17.2 0-31.2-14-31.2-31.2v-59.6c0-17.2 14-31.2 31.2-31.2h90.4c17.2 0 31.2 14 31.2 31.2v59.6c0 17.2-14 31.2-31.2 31.2z m-90.4-109.6c-10.4 0-19.2 8.4-19.2 19.2v59.6c0 10.4 8.4 19.2 19.2 19.2h90.4c10.4 0 19.2-8.4 19.2-19.2v-59.6c0-10.4-8.4-19.2-19.2-19.2H279.2z" fill="#4A555F" p-id="3872"></path><path d="M369.6 712.4H279.2c-2.8 0-4.8 2-4.8 4.8v59.6c0 2.8 2 4.8 4.8 4.8h90.4c2.8 0 4.8-2 4.8-4.8v-59.6c0.4-2.4-2-4.8-4.8-4.8zM312 767.6v-38l34 18.8-34 19.2z" fill="#71CDE1" p-id="3873"></path><path d="M306 778v-58.8l52.4 29.2-52.4 29.6z m12-38v17.2l15.6-8.8-15.6-8.4z" fill="#4A555F" p-id="3874"></path></svg>